<svg xmlns="http://www.w3.org/2000/svg" class="svg-icon" viewBox="0 0 32 32" width="24" height="24" style="fill: rgb(255, 169, 110);">
    <path d="M28 21.893v4.715c0 0 0 0 0 0.001 0 0.704-0.545 1.28-1.236 1.33l-0.004 0c-0.583 0.040-1.059 0.061-1.427 0.061-11.783 0-21.333-9.551-21.333-21.333 0-0.368 0.020-0.844 0.061-1.427 0.050-0.695 0.627-1.24 1.33-1.24 0 0 0 0 0.001 0h4.715c0 0 0 0 0.001 0 0.345 0 0.628 0.262 0.663 0.597l0 0.003c0.031 0.307 0.059 0.551 0.085 0.736 0.291 1.99 0.855 3.787 1.659 5.445l-0.048-0.11c0.127 0.267 0.044 0.585-0.196 0.756l-2.877 2.056c1.796 4.114 5.012 7.329 9.014 9.082l0.112 0.044 2.053-2.872c0.113-0.157 0.295-0.258 0.501-0.258 0.096 0 0.186 0.022 0.267 0.061l-0.004-0.002c1.548 0.754 3.344 1.317 5.233 1.595l0.101 0.012c0.185 0.027 0.429 0.056 0.733 0.085 0.338 0.036 0.599 0.319 0.599 0.663 0 0 0 0.001 0 0.001v-0z"></path>
</svg>